<svg width="200" height="50" viewBox="0 0 200 50" fill="none" xmlns="http://www.w3.org/2000/svg">
<g clip-path="url(#clip0_948_2507)">
<path d="M80.8398 23C80.7698 23.38 80.7202 23.7403 80.7002 24.0703C80.6802 24.4002 80.6602 24.7404 80.6602 25.0703C80.6602 26.24 80.96 27.1499 81.5498 27.7998C82.1398 28.4498 83.0204 28.7803 84.1904 28.7803C85.8802 28.7802 87.2905 28.0796 88.4404 26.6797C88.5803 26.5098 88.7502 26.2901 88.96 26.0205C89.16 25.7505 89.3701 25.42 89.5801 25.04C89.7901 24.6601 89.9899 24.24 90.1699 23.79C90.3499 23.34 90.4801 22.8501 90.5801 22.3301L92.29 12.0596H94.29L91.1904 30.7197C90.7605 33.2896 89.7901 35.1498 88.2803 36.2998C86.7703 37.4498 84.8799 38.0303 82.6299 38.0303L82.6396 38C81.21 38 79.9903 37.7902 78.9805 37.3604C77.9705 36.9304 77.14 36.33 76.5 35.54L77.9297 34.1797C78.4097 34.8197 79.0403 35.3197 79.8203 35.6797C80.6003 36.0396 81.5903 36.2197 82.7803 36.2197C84.5601 36.2197 86.0104 35.7596 87.1104 34.8496C88.2201 33.9296 88.9296 32.4195 89.2695 30.2998L90.0195 25.8799H89.9102C89.2202 27.3099 88.3799 28.44 87.3799 29.29C86.3799 30.13 85.1196 30.5596 83.5996 30.5596C82.08 30.5595 80.8103 30.1001 79.9404 29.1904C79.0705 28.2705 78.6397 27.0002 78.6396 25.3604C78.6396 25.0304 78.6604 24.6898 78.6904 24.3398C78.7204 23.9899 78.7696 23.6096 78.8096 23.1797L80.6602 12.0498H82.6602L80.8398 23ZM65.7295 37.6104H65.71C65.7126 37.6104 65.7152 37.6094 65.7178 37.6094C65.7217 37.6094 65.7256 37.6104 65.7295 37.6104ZM68.6504 11.8604C70.8402 11.8604 72.5604 12.2298 73.8203 12.9697C75.0802 13.7097 76.0299 14.63 76.6699 15.75L75.0996 16.8896C74.4098 15.8 73.55 14.9904 72.5303 14.4805C71.5103 13.9705 70.1801 13.71 68.5303 13.71C66.5805 13.71 65.0401 14.1597 63.9102 15.0596C62.7802 15.9595 62.2198 17.2498 62.2197 18.9297C62.2197 20.1596 62.5697 21.1 63.2695 21.75C63.9695 22.4 65.04 22.8897 66.46 23.2197L69.2402 23.8604C71.2098 24.3403 72.6197 25.0698 73.4697 26.0596C74.3197 27.0496 74.7402 28.3001 74.7402 29.8301C74.7402 31.02 74.5296 32.0901 74.0996 33.04C73.6696 33.9899 73.0702 34.8103 72.2803 35.4902C71.4904 36.1701 70.5502 36.6896 69.4404 37.0596C68.3325 37.4289 67.0946 37.6087 65.7178 37.6094C63.5135 37.6079 61.7278 37.2084 60.3604 36.4199C58.9904 35.62 57.9402 34.59 57.2002 33.3301L58.7695 32.0801C59.5295 33.27 60.4599 34.1796 61.5498 34.8096C62.6398 35.4396 64.0701 35.7598 65.8301 35.7598C67.9199 35.7597 69.5801 35.2503 70.79 34.2305C72 33.2105 72.6103 31.8 72.6104 30C72.6104 28.8103 72.2901 27.8804 71.6504 27.1904C71.0104 26.5005 69.91 25.9902 68.3701 25.6602L65.5498 24.9805C63.6499 24.5505 62.2596 23.8403 61.3896 22.8604C60.5197 21.8704 60.0899 20.5901 60.0898 19.0303C60.0898 17.8903 60.3 16.88 60.71 16C61.13 15.12 61.71 14.37 62.46 13.75C63.21 13.13 64.1099 12.6598 65.1699 12.3398C66.2299 12.0198 67.3904 11.8604 68.6504 11.8604ZM119.32 12.04H127.63L127.34 13.75H119.03L116.5 28.7998L117 29.0898L125.81 23.4805L126.81 24.7402L120.78 28.7002C119.64 29.4901 118.75 30.0399 118.12 30.3799C117.49 30.7199 116.91 30.8799 116.39 30.8799V30.8701C115.15 30.87 114.53 30.2501 114.53 29.0205C114.53 28.6905 114.57 28.2301 114.64 27.6602L117.03 13.75H111L111.29 12.04H115.96C116.46 12.04 116.84 11.9297 117.1 11.7197C117.36 11.5098 117.54 11.1402 117.64 10.6104L118.5 5.5498H120.39L119.32 12.04ZM153.01 11.5996C154.75 11.5996 156.17 11.8704 157.29 12.4004C158.41 12.9404 159.29 13.6203 159.93 14.4502L158.5 15.7002C158.31 15.4102 158.06 15.1298 157.75 14.8398C157.44 14.5499 157.05 14.3003 156.59 14.0703C156.13 13.8403 155.59 13.6605 154.97 13.5205C154.35 13.3805 153.63 13.3096 152.79 13.3096C151.08 13.3096 149.76 13.6401 148.83 14.29C147.9 14.94 147.44 15.8799 147.44 17.0898C147.44 17.5898 147.52 18.0104 147.69 18.3604C147.86 18.7002 148.091 18.9803 148.4 19.2002C148.71 19.4101 149.08 19.5802 149.51 19.7002C149.94 19.8202 150.4 19.9102 150.9 19.9902L153.57 20.3496C154.21 20.4196 154.851 20.54 155.48 20.71C156.11 20.88 156.67 21.1205 157.16 21.4404C157.65 21.7604 158.05 22.1903 158.36 22.7402C158.67 23.2901 158.82 23.9799 158.82 24.8096C158.82 25.7896 158.62 26.6504 158.23 27.4004C157.841 28.1502 157.28 28.7896 156.57 29.3096C155.86 29.8296 155.01 30.2302 154.04 30.4902C153.06 30.7502 152 30.8799 150.83 30.8799L150.84 30.8701C147.22 30.8701 144.6 29.6898 142.96 27.3398L144.46 26.1602C145.2 27.1801 146.09 27.9399 147.13 28.4199C148.18 28.9099 149.46 29.1504 150.98 29.1504C152.79 29.1503 154.22 28.79 155.28 28.0801C156.34 27.3702 156.87 26.3302 156.87 24.9805C156.87 23.9806 156.56 23.2799 155.94 22.8799C155.321 22.4799 154.5 22.2096 153.48 22.0996L150.77 21.7803C150.08 21.6903 149.409 21.5501 148.77 21.3701C148.13 21.1901 147.56 20.93 147.08 20.5801C146.59 20.2401 146.21 19.7998 145.92 19.2598C145.63 18.7199 145.49 18.05 145.49 17.2402C145.49 16.2903 145.69 15.4602 146.08 14.7402C146.47 14.0302 147.01 13.4397 147.7 12.9697C148.39 12.4999 149.19 12.1604 150.09 11.9404C150.99 11.7104 151.97 11.5996 153.01 11.5996ZM105.09 11.6104C106.61 11.6104 107.88 12.0705 108.75 12.9805C109.62 13.9004 110.05 15.1699 110.05 16.8096C110.05 17.1396 110.03 17.5104 110 17.9004C109.96 18.2901 109.91 18.6798 109.84 19.0596L107.95 30.4404H105.95L107.8 19.2705C107.87 18.8705 107.92 18.4899 107.94 18.1299C107.96 17.77 107.98 17.4601 107.98 17.2002C107.98 15.9604 107.69 15.0203 107.11 14.3604C106.53 13.7104 105.65 13.3799 104.49 13.3799C102.85 13.3799 101.43 14.0805 100.25 15.4805C99.8901 15.9104 99.4899 16.4801 99.04 17.21C98.59 17.94 98.2701 18.8201 98.0801 19.8701L96.3301 30.4297H94.3301L94.3096 30.4404L97.3799 12.0303H99.3799L98.6699 16.2803H98.8096C99.4995 14.8303 100.34 13.6903 101.33 12.8604C102.32 12.0304 103.57 11.6104 105.09 11.6104ZM131.55 4.0498H133.55L131.48 16.2803H131.62C132.31 14.8304 133.15 13.6903 134.13 12.8604C135.12 12.0304 136.37 11.6104 137.89 11.6104C139.41 11.6104 140.68 12.0705 141.55 12.9805C142.42 13.9004 142.85 15.1699 142.85 16.8096C142.85 17.1396 142.83 17.5104 142.8 17.9004C142.76 18.2901 142.71 18.6798 142.64 19.0596L140.75 30.4404H138.75L140.6 19.2705C140.67 18.8705 140.72 18.4899 140.74 18.1299C140.76 17.77 140.78 17.4601 140.78 17.2002C140.78 15.9604 140.49 15.0203 139.91 14.3604C139.33 13.7104 138.45 13.3799 137.29 13.3799C135.65 13.3799 134.23 14.0805 133.04 15.4805C132.68 15.9104 132.28 16.4801 131.83 17.21C131.38 17.94 131.06 18.8201 130.87 19.8701L129.12 30.4297H127.12L131.54 4.03027L131.55 4.0498Z" fill="#F5F5F5"/>
<path d="M171.26 21.8203C173.45 21.8203 175.23 22.2404 176.6 23.0703C177.96 23.9103 178.64 25.2099 178.64 26.9697V37.7197C178.64 38.0497 178.71 38.31 178.84 38.5C178.97 38.6999 179.26 38.7997 179.68 38.7998C179.82 38.7998 179.98 38.7995 180.15 38.7695C180.32 38.7496 180.51 38.7304 180.71 38.6904V41.0098C180.22 41.1498 179.85 41.2395 179.59 41.2695C179.33 41.2995 178.99 41.3203 178.54 41.3203C177.46 41.3203 176.68 40.9398 176.19 40.1699C175.93 39.76 175.75 39.1901 175.65 38.4502C175.01 39.2901 174.09 40.0099 172.9 40.6299C171.7 41.2499 170.39 41.5498 168.95 41.5498C167.22 41.5498 165.81 41.0304 164.71 39.9805C163.61 38.9305 163.06 37.62 163.06 36.04C163.06 34.31 163.6 32.9695 164.68 32.0195C165.76 31.0696 167.18 30.4798 168.93 30.2598L173.93 29.6299H173.94C174.66 29.5399 175.14 29.2401 175.39 28.7305C175.53 28.4505 175.6 28.0495 175.6 27.5195C175.599 26.4498 175.22 25.6704 174.46 25.1904C173.7 24.7104 172.61 24.46 171.2 24.46C169.57 24.46 168.41 24.9 167.72 25.79C167.34 26.28 167.09 27.0106 166.97 27.9805H164.04C164.1 25.6705 164.84 24.0699 166.28 23.1699C167.71 22.27 169.37 21.8204 171.26 21.8203ZM186.57 24.5303C187.26 23.6403 188.08 22.9505 189.03 22.4805C189.99 22.0105 191.02 21.7696 192.14 21.7695C194.47 21.7695 196.36 22.5702 197.81 24.1602C199.26 25.7601 199.99 28.1099 199.99 31.2197C199.99 34.1697 199.27 36.6203 197.84 38.5703C196.41 40.5201 194.42 41.5 191.88 41.5C190.46 41.5 189.26 41.1597 188.28 40.4697C187.7 40.0597 187.07 39.4095 186.41 38.5195V40.9102H183.521V15.25H186.57V24.5303ZM175.5 31.4404C175.12 31.6903 174.62 31.8899 174.021 32.0498C173.421 32.2098 172.83 32.3304 172.25 32.4004L170.35 32.6396C169.21 32.7896 168.36 33.0297 167.79 33.3496C166.82 33.8896 166.34 34.76 166.34 35.96C166.34 36.8599 166.67 37.5796 167.33 38.0996H167.34C168 38.6196 168.79 38.8799 169.69 38.8799C170.79 38.8798 171.86 38.6299 172.89 38.1201C174.63 37.2701 175.5 35.89 175.5 33.96V31.4404ZM191.78 24.5801C190.35 24.5801 189.09 25.1099 188.01 26.1699C186.93 27.2299 186.39 28.9699 186.39 31.3896C186.39 33.1396 186.61 34.5702 187.05 35.6602C187.88 37.71 189.42 38.7401 191.68 38.7402C193.38 38.7402 194.65 38.0697 195.5 36.7197H195.51C196.35 35.3697 196.78 33.5996 196.78 31.3896C196.78 29.4298 196.36 27.7997 195.51 26.5098C194.66 25.22 193.42 24.5801 191.78 24.5801Z" fill="#F5F5F5"/>
<path d="M159.28 37.85H142.87V40.85H159.28V37.85Z" fill="#FFD35C"/>
<path d="M26.5 21.373L32.7744 15.0986L34.8955 17.2207L28.6162 23.5H50V26.5H28.6182L34.8965 32.7783L32.7754 34.9004L26.5 28.625V50H23.5V28.6279L17.2266 34.9014L15.1055 32.7793L21.3848 26.5H0V23.5H21.3828L15.1045 17.2217L17.2256 15.0996L23.5 21.374V0H26.5V21.373ZM21.5967 37.1299L16.8105 48.6777L14.0391 47.5293L18.8252 35.9814L21.5967 37.1299ZM33.6602 41.9805L34.7998 44.75L35.9502 47.5195L33.1797 48.6699L28.4004 37.1201L31.1699 35.9697L33.6602 41.9805ZM15.1045 37.0234L8.3877 43.7412L6.26562 41.6201L12.9834 34.9023L15.1045 37.0234ZM43.7383 41.6191L41.6162 43.7402L32.7773 34.9014L34.8994 32.7803L43.7383 41.6191ZM14.0283 31.1758L2.47949 35.959L1.33203 33.1875L12.8799 28.4043L14.0283 31.1758ZM48.6768 33.1797L47.5293 35.9512L42.0322 33.6748L43.1797 30.9023L48.6768 33.1797ZM40.4092 29.7568L39.2607 32.5283L35.9805 31.1689L37.1289 28.3975L40.4092 29.7568ZM14.0312 18.8369L12.8828 21.6084L7.33984 19.3115L8.48828 16.54L14.0312 18.8369ZM48.6699 16.8203L39.8896 20.4502L37.1201 21.5996L35.9697 18.8301L47.5195 14.0498L48.6699 16.8203ZM5.71191 15.3867L4.56348 18.1572L1.33008 16.8174L2.47852 14.0459L5.71191 15.3867ZM17.2227 15.0986L15.1016 17.2197L6.2627 8.38086L8.38379 6.25977L17.2227 15.0986ZM39.4941 12.6182L34.8975 17.2148L32.7764 15.0928L37.373 10.4971L39.4941 12.6182ZM20.4502 10.1104L21.5996 12.8799L18.8301 14.0303L14.0498 2.48047L16.8203 1.33008L20.4502 10.1104ZM35.9502 2.48047L32.3203 11.25L31.1699 14.0303L28.4004 12.8799L33.1797 1.33008L35.9502 2.48047ZM43.7363 8.37598L41.6152 10.4971L39.4941 8.37598L41.6152 6.25488L43.7363 8.37598Z" fill="#F5F5F5"/>
</g>
<defs>
<clipPath id="clip0_948_2507">
<rect width="200" height="50" fill="white"/>
</clipPath>
</defs>
</svg>
